# xmcd CD database file
#
# Track frame offsets:
#	150
#	41163
#	55003
#	75052
#	89814
#	121035
#	137038
#	170518
#	195401
#	212804
#	233356
#	251035
#	274404
#
# Disc length: 3848 seconds
#
# Revision: 1
# Processed by: cddbd v1.5.2PL0 Copyright (c) Steve Scherf et al.
# Submitted via: CDex 1.50
#
DISCID=ac0f060d
DTITLE=Various Artist - Art Beat Collection 2012
DYEAR=2012
DGENRE=Jazz
TTITLE0=Алексей Козлов и ансамбль ''АРСЕНАЛ'' - Примирение братьев
TTITLE1=Фнна Королёва и группа ''Jump'' - Мечта аспиранта
TTITLE2=Иван Смирнов - Дикое поле
TTITLE3=Феликс Лахути - Невероятные приключения молдован в Фанки-лэнде
TTITLE4=Антон Горбунов - Лунный календарь
TTITLE5=Энвер Измайлов - Фанк
TTITLE6=Алекс Ростоцкий - Кривичи
TTITLE7=Дмитрий Илугдин и "Vision of Sound" - Places
TTITLE8=Александр Герасимов - For Hvost
TTITLE9=Kostarev Group - Эйфория
TTITLE10=Борис Базуров - Казачье болеро
TTITLE11=Сергей Клевенский - Пещера одиночества
TTITLE12=Алексей Козлов и ансамбль ''АРСЕНАЛ''
EXTD=YEAR: 2012
EXTT0=
EXTT1=
EXTT2=
EXTT3=
EXTT4=
EXTT5=
EXTT6=
EXTT7=
EXTT8=
EXTT9=
EXTT10=
EXTT11=
EXTT12=
PLAYORDER=
